<svg viewBox="0 0 180 180" fill="none" xmlns="http://www.w3.org/2000/svg">
  <path fill-rule="evenodd" clip-rule="evenodd" d="M180 90c0 49.706-40.294 90-90 90S0 139.706 0 90 40.294 0 90 0s90 40.294 90 90Zm-141.042 0c0 2.364 0 4.727.14 7.092.468 8.254 3.35 15.276 8.701 20.698 5.073 5.186 11.82 7.79 19.515 7.79 7.83 0 13.954-2.947 18.514-8.55l-.193-.139c-2.663 1.881-5.834 2.987-9.362 2.987-9.098 0-15.552-6.764-16.082-17.16h35.424c.093-.939.14-1.93.14-2.921v-2.364c0-2.803-.093-5.372-.233-7.789-.7-7.09-3.445-12.808-8.183-17.03-4.486-4.037-10.42-6.195-17.57-6.195-7.742 0-13.84 2.603-18.622 7.448-4.76 4.844-7.28 11.402-7.28 19.13Zm35.56-3.793h-26.41c.748-8.9 6.716-14.255 14.272-14.255 7.71 0 12.716 5.04 14.197 14.255ZM107.644 53h-4.953v72h4.953V53ZM130.41 69.206h.187l31.02 55.794h-5.437l-21.642-39.22h-.187l-9.56 16.994v22.226h-4.953V69.206h4.953v38.73h.187L125.04 91.4l5.37-9.558Z" fill="black"/>
</svg>
