<svg xmlns="http://www.w3.org/2000/svg" viewBox="0 0 448 512" fill="#fff" className="w-6 h-6">
  <path d="M100.28 480H7.4V171.6h92.88V480zm-46.44-338.8c-30.12 0-54.44-24.8-54.44-55.52 0-30.8 24.32-55.6 54.44-55.6 30.12 0 54.44 24.8 54.44 55.6 0 30.72-24.32 55.52-54.44 55.52zm353.56 338.8h-92.88V327.6c0-37.28-13.26-62.8-46.48-62.8-25.32 0-40.32 17.04-46.92 33.4-2.42 5.8-3.03 13.9-3.03 22.1v159.7h-92.88s1.24-259.2 0-286.6h92.88v40.6c-0.18 0.2-0.44 0.4-0.62 0.6h0.62v-0.6c12.32-18.6 34.4-45.2 84.04-45.2 61.2 0 106.8 40.88 106.8 128.2V480z"/>
</svg>
